<mxfile host="app.diagrams.net" agent="Mozilla/5.0 (Macintosh; Intel Mac OS X 10_15_7) AppleWebKit/537.36 (KHTML, like Gecko) Chrome/136.0.0.0 Safari/537.36" version="26.1.1">
  <diagram name="Page-1" id="MJ70Nzcptg3pPV6EjqIO">
    <mxGraphModel dx="1434" dy="819" grid="0" gridSize="10" guides="1" tooltips="1" connect="1" arrows="1" fold="1" page="1" pageScale="1" pageWidth="1169" pageHeight="827" math="0" shadow="0">
      <root>
        <mxCell id="0" />
        <mxCell id="1" parent="0" />
        <mxCell id="it6QR-73fpGt5OLOgzgY-38" value="" style="whiteSpace=wrap;html=1;aspect=fixed;dashed=1;" vertex="1" parent="1">
          <mxGeometry x="312" y="299" width="177" height="177" as="geometry" />
        </mxCell>
        <mxCell id="it6QR-73fpGt5OLOgzgY-26" style="edgeStyle=orthogonalEdgeStyle;rounded=0;orthogonalLoop=1;jettySize=auto;html=1;entryX=1;entryY=0.5;entryDx=0;entryDy=0;" edge="1" parent="1" source="it6QR-73fpGt5OLOgzgY-8" target="it6QR-73fpGt5OLOgzgY-10">
          <mxGeometry relative="1" as="geometry" />
        </mxCell>
        <mxCell id="it6QR-73fpGt5OLOgzgY-8" value="" style="whiteSpace=wrap;html=1;aspect=fixed;dashed=1;" vertex="1" parent="1">
          <mxGeometry x="542" y="179" width="247" height="247" as="geometry" />
        </mxCell>
        <mxCell id="it6QR-73fpGt5OLOgzgY-29" style="edgeStyle=orthogonalEdgeStyle;rounded=0;orthogonalLoop=1;jettySize=auto;html=1;" edge="1" parent="1" source="it6QR-73fpGt5OLOgzgY-1" target="it6QR-73fpGt5OLOgzgY-2">
          <mxGeometry relative="1" as="geometry" />
        </mxCell>
        <mxCell id="it6QR-73fpGt5OLOgzgY-1" value="" style="image;aspect=fixed;perimeter=ellipsePerimeter;html=1;align=center;shadow=0;dashed=0;spacingTop=3;image=img/lib/active_directory/users.svg;" vertex="1" parent="1">
          <mxGeometry x="198" y="343" width="33" height="50" as="geometry" />
        </mxCell>
        <mxCell id="it6QR-73fpGt5OLOgzgY-30" style="edgeStyle=orthogonalEdgeStyle;rounded=0;orthogonalLoop=1;jettySize=auto;html=1;entryX=0.5;entryY=0;entryDx=0;entryDy=0;" edge="1" parent="1" source="it6QR-73fpGt5OLOgzgY-2" target="it6QR-73fpGt5OLOgzgY-3">
          <mxGeometry relative="1" as="geometry" />
        </mxCell>
        <mxCell id="it6QR-73fpGt5OLOgzgY-2" value="" style="image;sketch=0;aspect=fixed;html=1;points=[];align=center;fontSize=12;image=img/lib/mscae/DNS.svg;" vertex="1" parent="1">
          <mxGeometry x="262" y="216" width="50" height="50" as="geometry" />
        </mxCell>
        <mxCell id="it6QR-73fpGt5OLOgzgY-3" value="" style="strokeColor=#dddddd;shadow=1;strokeWidth=1;rounded=1;absoluteArcSize=1;arcSize=2;" vertex="1" parent="1">
          <mxGeometry x="338" y="352" width="130" height="44" as="geometry" />
        </mxCell>
        <mxCell id="it6QR-73fpGt5OLOgzgY-4" value="HTTPS&#xa;Load Balancer" style="sketch=0;dashed=0;connectable=0;html=1;fillColor=#757575;strokeColor=none;shape=mxgraph.gcp2.network_load_balancer;part=1;labelPosition=right;verticalLabelPosition=middle;align=left;verticalAlign=middle;spacingLeft=5;fontSize=12;" vertex="1" parent="it6QR-73fpGt5OLOgzgY-3">
          <mxGeometry y="0.5" width="32" height="32" relative="1" as="geometry">
            <mxPoint x="5" y="-16" as="offset" />
          </mxGeometry>
        </mxCell>
        <mxCell id="it6QR-73fpGt5OLOgzgY-6" value="Auto Scaling" style="sketch=0;outlineConnect=0;fontColor=#232F3E;gradientColor=none;strokeColor=#232F3E;fillColor=#ffffff;dashed=0;verticalLabelPosition=bottom;verticalAlign=top;align=center;html=1;fontSize=12;fontStyle=0;aspect=fixed;shape=mxgraph.aws4.resourceIcon;resIcon=mxgraph.aws4.auto_scaling;" vertex="1" parent="1">
          <mxGeometry x="627" y="316" width="60" height="60" as="geometry" />
        </mxCell>
        <mxCell id="it6QR-73fpGt5OLOgzgY-7" value="Amazon EC2" style="sketch=0;outlineConnect=0;fontColor=#232F3E;gradientColor=none;strokeColor=#ffffff;fillColor=#232F3E;dashed=0;verticalLabelPosition=middle;verticalAlign=bottom;align=center;html=1;whiteSpace=wrap;fontSize=10;fontStyle=1;spacing=3;shape=mxgraph.aws4.productIcon;prIcon=mxgraph.aws4.ec2;" vertex="1" parent="1">
          <mxGeometry x="619" y="216" width="76" height="91" as="geometry" />
        </mxCell>
        <mxCell id="it6QR-73fpGt5OLOgzgY-9" value="Tomcat" style="text;html=1;align=center;verticalAlign=middle;whiteSpace=wrap;rounded=0;" vertex="1" parent="1">
          <mxGeometry x="693" y="243" width="60" height="30" as="geometry" />
        </mxCell>
        <mxCell id="it6QR-73fpGt5OLOgzgY-10" value="" style="whiteSpace=wrap;html=1;aspect=fixed;dashed=1;" vertex="1" parent="1">
          <mxGeometry x="540" y="494" width="247" height="247" as="geometry" />
        </mxCell>
        <mxCell id="it6QR-73fpGt5OLOgzgY-35" style="edgeStyle=orthogonalEdgeStyle;rounded=0;orthogonalLoop=1;jettySize=auto;html=1;" edge="1" parent="1" source="it6QR-73fpGt5OLOgzgY-12" target="it6QR-73fpGt5OLOgzgY-19">
          <mxGeometry relative="1" as="geometry" />
        </mxCell>
        <mxCell id="it6QR-73fpGt5OLOgzgY-12" value="Amazon EC2" style="sketch=0;outlineConnect=0;fontColor=#232F3E;gradientColor=none;strokeColor=#ffffff;fillColor=#232F3E;dashed=0;verticalLabelPosition=middle;verticalAlign=bottom;align=center;html=1;whiteSpace=wrap;fontSize=10;fontStyle=1;spacing=3;shape=mxgraph.aws4.productIcon;prIcon=mxgraph.aws4.ec2;" vertex="1" parent="1">
          <mxGeometry x="579" y="531" width="58" height="73" as="geometry" />
        </mxCell>
        <mxCell id="it6QR-73fpGt5OLOgzgY-36" style="edgeStyle=orthogonalEdgeStyle;rounded=0;orthogonalLoop=1;jettySize=auto;html=1;entryX=0.5;entryY=1;entryDx=0;entryDy=0;" edge="1" parent="1" source="it6QR-73fpGt5OLOgzgY-14" target="it6QR-73fpGt5OLOgzgY-17">
          <mxGeometry relative="1" as="geometry" />
        </mxCell>
        <mxCell id="it6QR-73fpGt5OLOgzgY-14" value="Amazon EC2" style="sketch=0;outlineConnect=0;fontColor=#232F3E;gradientColor=none;strokeColor=#ffffff;fillColor=#232F3E;dashed=0;verticalLabelPosition=middle;verticalAlign=bottom;align=center;html=1;whiteSpace=wrap;fontSize=10;fontStyle=1;spacing=3;shape=mxgraph.aws4.productIcon;prIcon=mxgraph.aws4.ec2;" vertex="1" parent="1">
          <mxGeometry x="681" y="534" width="58" height="73" as="geometry" />
        </mxCell>
        <mxCell id="it6QR-73fpGt5OLOgzgY-37" style="edgeStyle=orthogonalEdgeStyle;rounded=0;orthogonalLoop=1;jettySize=auto;html=1;" edge="1" parent="1" source="it6QR-73fpGt5OLOgzgY-15" target="it6QR-73fpGt5OLOgzgY-12">
          <mxGeometry relative="1" as="geometry">
            <Array as="points">
              <mxPoint x="608" y="660" />
            </Array>
          </mxGeometry>
        </mxCell>
        <mxCell id="it6QR-73fpGt5OLOgzgY-15" value="Amazon EC2" style="sketch=0;outlineConnect=0;fontColor=#232F3E;gradientColor=none;strokeColor=#ffffff;fillColor=#232F3E;dashed=0;verticalLabelPosition=middle;verticalAlign=bottom;align=center;html=1;whiteSpace=wrap;fontSize=10;fontStyle=1;spacing=3;shape=mxgraph.aws4.productIcon;prIcon=mxgraph.aws4.ec2;" vertex="1" parent="1">
          <mxGeometry x="623" y="635" width="58" height="73" as="geometry" />
        </mxCell>
        <mxCell id="it6QR-73fpGt5OLOgzgY-16" value="Memcache" style="text;html=1;align=center;verticalAlign=middle;whiteSpace=wrap;rounded=0;" vertex="1" parent="1">
          <mxGeometry x="579" y="504" width="60" height="30" as="geometry" />
        </mxCell>
        <mxCell id="it6QR-73fpGt5OLOgzgY-17" value="Rabbit MQ" style="text;html=1;align=center;verticalAlign=middle;whiteSpace=wrap;rounded=0;" vertex="1" parent="1">
          <mxGeometry x="622" y="607" width="60" height="30" as="geometry" />
        </mxCell>
        <mxCell id="it6QR-73fpGt5OLOgzgY-19" value="MySQL" style="text;html=1;align=center;verticalAlign=middle;whiteSpace=wrap;rounded=0;" vertex="1" parent="1">
          <mxGeometry x="682" y="504" width="60" height="30" as="geometry" />
        </mxCell>
        <mxCell id="it6QR-73fpGt5OLOgzgY-20" value="Security Group" style="text;html=1;align=center;verticalAlign=middle;whiteSpace=wrap;rounded=0;fillColor=#f8cecc;strokeColor=#b85450;" vertex="1" parent="1">
          <mxGeometry x="595" y="184" width="137" height="30" as="geometry" />
        </mxCell>
        <mxCell id="it6QR-73fpGt5OLOgzgY-21" value="Security Group" style="text;html=1;align=center;verticalAlign=middle;whiteSpace=wrap;rounded=0;fillColor=#f8cecc;strokeColor=#b85450;" vertex="1" parent="1">
          <mxGeometry x="588.5" y="735" width="137" height="30" as="geometry" />
        </mxCell>
        <mxCell id="it6QR-73fpGt5OLOgzgY-27" style="edgeStyle=orthogonalEdgeStyle;rounded=0;orthogonalLoop=1;jettySize=auto;html=1;" edge="1" parent="1" source="it6QR-73fpGt5OLOgzgY-22" target="it6QR-73fpGt5OLOgzgY-8">
          <mxGeometry relative="1" as="geometry" />
        </mxCell>
        <mxCell id="it6QR-73fpGt5OLOgzgY-22" value="" style="sketch=0;outlineConnect=0;fontColor=#232F3E;gradientColor=none;fillColor=#7AA116;strokeColor=none;dashed=0;verticalLabelPosition=bottom;verticalAlign=top;align=center;html=1;fontSize=12;fontStyle=0;aspect=fixed;pointerEvents=1;shape=mxgraph.aws4.bucket;" vertex="1" parent="1">
          <mxGeometry x="894.32" y="200" width="41.35" height="43" as="geometry" />
        </mxCell>
        <mxCell id="it6QR-73fpGt5OLOgzgY-23" value="S3 Bucket" style="text;html=1;align=center;verticalAlign=middle;whiteSpace=wrap;rounded=0;" vertex="1" parent="1">
          <mxGeometry x="885" y="256" width="60" height="30" as="geometry" />
        </mxCell>
        <mxCell id="it6QR-73fpGt5OLOgzgY-28" style="edgeStyle=orthogonalEdgeStyle;rounded=0;orthogonalLoop=1;jettySize=auto;html=1;entryX=1;entryY=0.5;entryDx=0;entryDy=0;" edge="1" parent="1" source="it6QR-73fpGt5OLOgzgY-24" target="it6QR-73fpGt5OLOgzgY-8">
          <mxGeometry relative="1" as="geometry" />
        </mxCell>
        <mxCell id="it6QR-73fpGt5OLOgzgY-24" value="" style="outlineConnect=0;dashed=0;verticalLabelPosition=bottom;verticalAlign=top;align=center;html=1;shape=mxgraph.aws3.route_53;fillColor=#F58536;gradientColor=none;" vertex="1" parent="1">
          <mxGeometry x="892" y="344.25" width="53" height="47.5" as="geometry" />
        </mxCell>
        <mxCell id="it6QR-73fpGt5OLOgzgY-25" value="Route 53 (DNS Private Zones)" style="text;html=1;align=center;verticalAlign=middle;whiteSpace=wrap;rounded=0;" vertex="1" parent="1">
          <mxGeometry x="852.25" y="402" width="132.5" height="30" as="geometry" />
        </mxCell>
        <mxCell id="it6QR-73fpGt5OLOgzgY-31" style="edgeStyle=orthogonalEdgeStyle;rounded=0;orthogonalLoop=1;jettySize=auto;html=1;entryX=0.016;entryY=0.429;entryDx=0;entryDy=0;entryPerimeter=0;" edge="1" parent="1" source="it6QR-73fpGt5OLOgzgY-3" target="it6QR-73fpGt5OLOgzgY-8">
          <mxGeometry relative="1" as="geometry" />
        </mxCell>
        <mxCell id="it6QR-73fpGt5OLOgzgY-32" value="End-to-End-Web-App-Hosting-on-AWS-Lift-Shift-Approach" style="text;html=1;align=center;verticalAlign=middle;whiteSpace=wrap;rounded=0;fillColor=#d5e8d4;strokeColor=#82b366;" vertex="1" parent="1">
          <mxGeometry x="356" y="85" width="561" height="30" as="geometry" />
        </mxCell>
        <mxCell id="it6QR-73fpGt5OLOgzgY-39" value="Security Group" style="text;html=1;align=center;verticalAlign=middle;whiteSpace=wrap;rounded=0;fillColor=#f8cecc;strokeColor=#b85450;" vertex="1" parent="1">
          <mxGeometry x="332" y="411" width="137" height="30" as="geometry" />
        </mxCell>
      </root>
    </mxGraphModel>
  </diagram>
</mxfile>
